<?xml version="1.0" standalone="no"?>
<!DOCTYPE svg PUBLIC "-//W3C//DTD SVG 20010904//EN"
 "http://www.w3.org/TR/2001/REC-SVG-20010904/DTD/svg10.dtd">
<svg version="1.0" xmlns="http://www.w3.org/2000/svg"
 width="1024.000000pt" height="1024.000000pt" viewBox="0 0 1024.000000 1024.000000"
 preserveAspectRatio="xMidYMid meet">

<g transform="translate(0.000000,1024.000000) scale(0.100000,-0.100000)"
fill="#000000" stroke="none">
<path d="M5150 6642 c0 -6 8 -13 18 -16 10 -3 35 -23 56 -43 104 -100 104
-256 0 -341 -35 -29 -127 -62 -175 -62 -66 -1 -170 -78 -200 -148 -22 -52 -25
-139 -5 -186 20 -49 68 -99 123 -126 41 -21 62 -25 144 -25 90 0 99 2 172 38
172 85 277 257 277 452 -1 89 -12 140 -53 223 -60 124 -194 229 -308 240 -31
3 -49 1 -49 -6z m-15 -657 c14 -13 25 -36 25 -50 0 -33 -41 -75 -73 -75 -39 0
-77 36 -77 74 0 71 75 102 125 51z"/>
<path d="M5027 6489 c-21 -12 -47 -61 -47 -89 0 -30 53 -80 84 -80 59 0 96 38
96 101 0 60 -78 100 -133 68z"/>
<path d="M1227 5176 c-58 -21 -105 -57 -138 -105 -49 -75 -54 -106 -54 -356 0
-219 1 -232 23 -280 52 -113 152 -175 281 -175 162 0 269 91 291 248 l7 53
-81 -3 -81 -3 -6 -35 c-3 -19 -11 -45 -17 -57 -29 -54 -136 -71 -187 -31 -49
39 -55 69 -55 293 0 188 2 209 21 246 33 66 113 88 177 49 36 -22 62 -72 62
-120 l0 -30 80 0 80 0 0 45 c0 110 -78 225 -176 259 -57 19 -174 20 -227 2z"/>
<path d="M3321 5173 c-58 -21 -136 -98 -150 -149 -14 -51 -14 -132 1 -175 28
-84 84 -130 225 -184 57 -23 111 -51 132 -71 32 -29 36 -38 35 -80 -1 -40 -6
-52 -33 -76 -27 -24 -40 -28 -92 -28 -53 0 -64 3 -89 29 -16 16 -32 41 -35 57
-4 16 -8 35 -10 41 -3 9 -27 12 -77 10 l-73 -2 1 -55 c2 -132 100 -217 260
-228 187 -12 314 92 314 257 0 48 -7 80 -24 116 -38 82 -97 123 -266 187 -102
39 -135 102 -91 174 33 54 137 63 184 15 11 -11 23 -39 26 -63 l6 -43 83 -3
82 -3 0 40 c0 104 -70 202 -168 235 -58 20 -183 19 -241 -1z"/>
<path d="M1946 5161 c-3 -9 -59 -205 -125 -436 -65 -231 -122 -428 -126 -438
-7 -16 -1 -18 81 -15 l89 3 23 85 c13 47 25 91 27 98 3 9 37 12 123 12 l119 0
16 -57 c8 -32 20 -77 27 -100 l11 -43 86 0 86 0 -7 33 c-3 17 -63 221 -133
453 l-126 421 -83 0 c-68 0 -85 -3 -88 -16z m139 -426 c15 -55 30 -106 32
-112 4 -10 -16 -13 -80 -13 l-85 0 39 148 c21 81 39 149 40 152 1 8 25 -70 54
-175z"/>
<path d="M2450 4725 l0 -455 157 0 c188 0 267 12 327 50 139 89 140 341 0 408
l-34 16 30 19 c47 30 72 80 78 157 4 57 1 76 -21 122 -50 111 -123 138 -374
138 l-163 0 0 -455z m366 272 c32 -37 34 -127 5 -156 -26 -26 -91 -43 -149
-39 l-47 3 -3 114 -3 113 87 -3 c80 -4 87 -6 110 -32z m-11 -341 c80 -34 88
-168 13 -220 -16 -12 -47 -16 -110 -16 l-88 0 0 125 0 125 75 0 c43 0 90 -6
110 -14z"/>
<path d="M8443 5052 c-39 -3 -46 -8 -78 -56 -19 -29 -35 -56 -35 -60 0 -3 21
-6 47 -6 43 0 50 4 104 59 58 58 58 59 31 62 -15 2 -46 3 -69 1z"/>
<path d="M4180 4888 c-52 -15 -95 -52 -121 -105 -22 -44 -24 -61 -24 -203 0
-147 1 -158 26 -205 58 -114 205 -149 311 -74 35 25 68 88 68 129 0 30 0 30
-55 30 -47 0 -55 -3 -55 -19 0 -32 -45 -71 -82 -71 -74 1 -88 34 -88 215 l0
147 29 29 c17 16 40 29 54 29 36 0 75 -36 83 -75 6 -35 7 -35 60 -35 52 0 54
1 54 28 0 54 -20 100 -59 135 -58 52 -124 67 -201 45z"/>
<path d="M4641 4886 c-56 -19 -96 -58 -118 -115 -14 -37 -18 -77 -18 -201 0
-151 1 -156 28 -202 33 -57 69 -84 132 -98 68 -15 129 -3 178 34 68 52 81 90
86 246 2 78 -2 156 -8 186 -13 55 -57 116 -101 139 -42 22 -128 27 -179 11z
m136 -120 c28 -24 28 -25 31 -166 4 -150 -3 -189 -42 -215 -21 -16 -63 -19
-91 -9 -41 16 -61 121 -49 265 6 76 11 96 31 120 32 37 80 39 120 5z"/>
<path d="M7628 4886 c-64 -23 -89 -46 -115 -102 -23 -51 -24 -61 -21 -223 l3
-169 30 -43 c42 -59 94 -84 177 -84 58 0 72 4 110 30 44 31 71 75 82 133 l6
33 -58 -3 c-48 -3 -57 -6 -60 -23 -12 -64 -100 -88 -147 -40 -24 24 -25 28
-25 180 l0 157 29 29 c18 17 40 29 56 29 35 0 85 -50 85 -84 0 -25 2 -26 56
-26 l57 0 -5 50 c-6 62 -44 121 -92 144 -50 24 -123 29 -168 12z"/>
<path d="M8332 4888 c-62 -14 -117 -71 -138 -144 -23 -79 -16 -313 10 -364 26
-49 45 -69 88 -91 112 -57 235 -21 291 85 19 35 22 61 25 183 5 182 -8 234
-73 291 -58 51 -109 61 -203 40z m125 -122 c28 -24 28 -25 31 -166 4 -150 -3
-189 -42 -215 -33 -24 -80 -19 -110 11 -24 25 -26 33 -27 123 -2 202 3 229 40
258 27 21 77 15 108 -11z"/>
<path d="M5020 4579 l0 -309 60 0 60 0 1 198 c1 116 4 183 9 162 4 -19 19 -75
33 -125 14 -49 35 -121 45 -160 l19 -70 43 0 43 0 28 105 c16 58 39 146 51
195 l23 90 3 -197 2 -198 55 0 55 0 0 310 0 311 -76 -3 -76 -3 -49 -170 c-26
-93 -48 -180 -49 -192 0 -40 -18 -25 -29 25 -6 26 -30 112 -54 192 l-43 145
-77 1 -77 1 0 -308z"/>
<path d="M5660 4580 l0 -311 58 3 57 3 5 105 5 105 69 3 c118 6 167 44 189
147 24 115 -30 219 -127 244 -24 6 -92 11 -150 11 l-106 0 0 -310z m244 181
c15 -15 20 -33 19 -71 -1 -71 -28 -100 -95 -100 l-48 0 0 101 0 102 52 -6 c32
-4 60 -14 72 -26z"/>
<path d="M6123 4874 c-2 -7 -3 -115 -1 -240 3 -223 4 -230 28 -272 37 -66 97
-97 185 -97 93 0 152 33 187 102 22 46 23 57 23 283 l0 235 -57 3 -58 3 -1
-213 c0 -247 -6 -274 -61 -301 -32 -16 -41 -17 -65 -5 -56 26 -63 60 -63 300
l0 217 -56 -1 c-34 -1 -58 -6 -61 -14z"/>
<path d="M6600 4835 l0 -54 73 -3 72 -3 0 -253 0 -252 61 0 61 0 0 253 -1 252
72 3 72 3 0 54 0 55 -205 0 -205 0 0 -55z"/>
<path d="M7080 4598 c-45 -161 -85 -301 -88 -310 -4 -16 3 -18 56 -18 57 0 60
1 66 28 4 15 12 44 17 65 l10 37 79 0 79 0 10 -37 c5 -21 13 -50 17 -65 6 -27
9 -28 66 -28 l60 0 -6 28 c-9 35 -121 427 -149 517 l-22 70 -56 3 -56 3 -83
-293z m167 0 c12 -51 23 -94 23 -95 0 -2 -23 -3 -51 -3 -47 0 -51 2 -46 21 3
11 13 56 23 99 10 44 20 77 23 75 2 -3 15 -47 28 -97z"/>
<path d="M7970 4580 l0 -310 60 0 60 0 0 310 0 310 -60 0 -60 0 0 -310z"/>
<path d="M8710 4580 l0 -310 55 0 55 0 0 198 1 197 96 -197 96 -198 59 0 58 0
0 310 0 310 -55 0 -55 0 0 -197 0 -198 -93 195 -93 195 -62 3 -62 3 0 -311z"/>
</g>
</svg>
